<svg width="512" height="512" version="1.1" xmlns="http://www.w3.org/2000/svg" desc="Created with imagetracer.js version 1.2.6" ><path fill="rgb(0,0,0)" stroke="rgb(0,0,0)" stroke-width="1" opacity="0" d="M 0 0 L 512 0 L 512 512 L 0 512 L 0 0 Z M 111 32 Q 94 35 84 44 Q 68 56 64 79 L 64 435 Q 67 449 74 459 Q 86 475 111 480 L 130 479 L 145 473 L 425 296 Q 443 283 448 257 L 448 241 L 446 232 L 436 213 L 426 202 L 410 192 L 145 39 Q 132 31 111 32 Z " /><path fill="rgb(0,0,0)" stroke="rgb(0,0,0)" stroke-width="1" opacity="0.803921568627451" d="M 110.5 32 L 116 32.5 L 110.5 33 L 110.5 32 Z " /><path fill="rgb(0,0,0)" stroke="rgb(0,0,0)" stroke-width="1" opacity="0.803921568627451" d="M 121.5 32 L 125 32.5 L 121.5 33 L 121.5 32 Z " /><path fill="rgb(0,0,0)" stroke="rgb(0,0,0)" stroke-width="1" opacity="0.803921568627451" d="M 144.5 39 L 145.5 41 L 144.5 39 Z " /><path fill="rgb(0,0,0)" stroke="rgb(0,0,0)" stroke-width="1" opacity="0.803921568627451" d="M 87.5 41 L 86.5 43 L 87.5 41 Z " /><path fill="rgb(0,0,0)" stroke="rgb(0,0,0)" stroke-width="1" opacity="0.803921568627451" d="M 151.5 43 L 152.5 45 L 151.5 43 Z " /><path fill="rgb(0,0,0)" stroke="rgb(0,0,0)" stroke-width="1" opacity="0.803921568627451" d="M 83.5 44 L 76.5 52 L 83.5 44 Z " /><path fill="rgb(0,0,0)" stroke="rgb(0,0,0)" stroke-width="1" opacity="0.803921568627451" d="M 158.5 47 L 159.5 49 L 158.5 47 Z " /><path fill="rgb(0,0,0)" stroke="rgb(0,0,0)" stroke-width="1" opacity="0.803921568627451" d="M 74.5 54 L 73.5 56 L 74.5 54 Z " /><path fill="rgb(0,0,0)" stroke="rgb(0,0,0)" stroke-width="1" opacity="0.803921568627451" d="M 170.5 54 L 171.5 56 L 170.5 54 Z " /><path fill="rgb(0,0,0)" stroke="rgb(0,0,0)" stroke-width="1" opacity="0.803921568627451" d="M 177.5 58 L 178.5 60 L 177.5 58 Z " /><path fill="rgb(0,0,0)" stroke="rgb(0,0,0)" stroke-width="1" opacity="0.803921568627451" d="M 184.5 62 L 185.5 64 L 184.5 62 Z " /><path fill="rgb(0,0,0)" stroke="rgb(0,0,0)" stroke-width="1" opacity="0.803921568627451" d="M 189.5 65 L 190.5 67 L 189.5 65 Z " /><path fill="rgb(0,0,0)" stroke="rgb(0,0,0)" stroke-width="1" opacity="0.803921568627451" d="M 196.5 69 L 197.5 71 L 196.5 69 Z " /><path fill="rgb(0,0,0)" stroke="rgb(0,0,0)" stroke-width="1" opacity="0.803921568627451" d="M 203.5 73 L 204.5 75 L 203.5 73 Z " /><path fill="rgb(0,0,0)" stroke="rgb(0,0,0)" stroke-width="1" opacity="0.803921568627451" d="M 210.5 77 L 211.5 79 L 210.5 77 Z " /><path fill="rgb(0,0,0)" stroke="rgb(0,0,0)" stroke-width="1" opacity="0.803921568627451" d="M 64.5 78 L 65 83.5 L 64 83.5 L 64.5 78 Z " /><path fill="rgb(0,0,0)" stroke="rgb(0,0,0)" stroke-width="1" opacity="0.803921568627451" d="M 215.5 80 L 216.5 82 L 215.5 80 Z " /><path fill="rgb(0,0,0)" stroke="rgb(0,0,0)" stroke-width="1" opacity="0.803921568627451" d="M 222.5 84 L 223.5 86 L 222.5 84 Z " /><path fill="rgb(0,0,0)" stroke="rgb(0,0,0)" stroke-width="1" opacity="0.803921568627451" d="M 229.5 88 L 230.5 90 L 229.5 88 Z " /><path fill="rgb(0,0,0)" stroke="rgb(0,0,0)" stroke-width="1" opacity="0.803921568627451" d="M 234.5 91 L 235.5 93 L 234.5 91 Z " /><path fill="rgb(0,0,0)" stroke="rgb(0,0,0)" stroke-width="1" opacity="0.803921568627451" d="M 241.5 95 L 242.5 97 L 241.5 95 Z " /><path fill="rgb(0,0,0)" stroke="rgb(0,0,0)" stroke-width="1" opacity="0.803921568627451" d="M 248.5 99 L 249.5 101 L 248.5 99 Z " /><path fill="rgb(0,0,0)" stroke="rgb(0,0,0)" stroke-width="1" opacity="0.803921568627451" d="M 255.5 103 L 256.5 105 L 255.5 103 Z " /><path fill="rgb(0,0,0)" stroke="rgb(0,0,0)" stroke-width="1" opacity="0.803921568627451" d="M 260.5 106 L 261.5 108 L 260.5 106 Z " /><path fill="rgb(0,0,0)" stroke="rgb(0,0,0)" stroke-width="1" opacity="0.803921568627451" d="M 267.5 110 L 268.5 112 L 267.5 110 Z " /><path fill="rgb(0,0,0)" stroke="rgb(0,0,0)" stroke-width="1" opacity="0.803921568627451" d="M 274.5 114 L 275.5 116 L 274.5 114 Z " /><path fill="rgb(0,0,0)" stroke="rgb(0,0,0)" stroke-width="1" opacity="0.803921568627451" d="M 279.5 117 L 280.5 119 L 279.5 117 Z " /><path fill="rgb(0,0,0)" stroke="rgb(0,0,0)" stroke-width="1" opacity="0.803921568627451" d="M 286.5 121 L 287.5 123 L 286.5 121 Z " /><path fill="rgb(0,0,0)" stroke="rgb(0,0,0)" stroke-width="1" opacity="0.803921568627451" d="M 293.5 125 L 294.5 127 L 293.5 125 Z " /><path fill="rgb(0,0,0)" stroke="rgb(0,0,0)" stroke-width="1" opacity="0.803921568627451" d="M 300.5 129 L 301.5 131 L 300.5 129 Z " /><path fill="rgb(0,0,0)" stroke="rgb(0,0,0)" stroke-width="1" opacity="0.803921568627451" d="M 305.5 132 L 306.5 134 L 305.5 132 Z " /><path fill="rgb(0,0,0)" stroke="rgb(0,0,0)" stroke-width="1" opacity="0.803921568627451" d="M 312.5 136 L 313.5 138 L 312.5 136 Z " /><path fill="rgb(0,0,0)" stroke="rgb(0,0,0)" stroke-width="1" opacity="0.803921568627451" d="M 319.5 140 L 320.5 142 L 319.5 140 Z " /><path fill="rgb(0,0,0)" stroke="rgb(0,0,0)" stroke-width="1" opacity="0.803921568627451" d="M 324.5 143 L 325.5 145 L 324.5 143 Z " /><path fill="rgb(0,0,0)" stroke="rgb(0,0,0)" stroke-width="1" opacity="0.803921568627451" d="M 331.5 147 L 332.5 149 L 331.5 147 Z " /><path fill="rgb(0,0,0)" stroke="rgb(0,0,0)" stroke-width="1" opacity="0.803921568627451" d="M 338.5 151 L 339.5 153 L 338.5 151 Z " /><path fill="rgb(0,0,0)" stroke="rgb(0,0,0)" stroke-width="1" opacity="0.803921568627451" d="M 345.5 155 L 346.5 157 L 345.5 155 Z " /><path fill="rgb(0,0,0)" stroke="rgb(0,0,0)" stroke-width="1" opacity="0.803921568627451" d="M 350.5 158 L 351.5 160 L 350.5 158 Z " /><path fill="rgb(0,0,0)" stroke="rgb(0,0,0)" stroke-width="1" opacity="0.803921568627451" d="M 357.5 162 L 358.5 164 L 357.5 162 Z " /><path fill="rgb(0,0,0)" stroke="rgb(0,0,0)" stroke-width="1" opacity="0.803921568627451" d="M 364.5 166 L 365.5 168 L 364.5 166 Z " /><path fill="rgb(0,0,0)" stroke="rgb(0,0,0)" stroke-width="1" opacity="0.803921568627451" d="M 369.5 169 L 370.5 171 L 369.5 169 Z " /><path fill="rgb(0,0,0)" stroke="rgb(0,0,0)" stroke-width="1" opacity="0.803921568627451" d="M 376.5 173 L 377.5 175 L 376.5 173 Z " /><path fill="rgb(0,0,0)" stroke="rgb(0,0,0)" stroke-width="1" opacity="0.803921568627451" d="M 383.5 177 L 384.5 179 L 383.5 177 Z " /><path fill="rgb(0,0,0)" stroke="rgb(0,0,0)" stroke-width="1" opacity="0.803921568627451" d="M 390.5 181 L 391.5 183 L 390.5 181 Z " /><path fill="rgb(0,0,0)" stroke="rgb(0,0,0)" stroke-width="1" opacity="0.803921568627451" d="M 395.5 184 L 396.5 186 L 395.5 184 Z " /><path fill="rgb(0,0,0)" stroke="rgb(0,0,0)" stroke-width="1" opacity="0.803921568627451" d="M 402.5 188 L 403.5 190 L 402.5 188 Z " /><path fill="rgb(0,0,0)" stroke="rgb(0,0,0)" stroke-width="1" opacity="0.803921568627451" d="M 409.5 192 L 410.5 194 L 409.5 192 Z " /><path fill="rgb(0,0,0)" stroke="rgb(0,0,0)" stroke-width="1" opacity="0.803921568627451" d="M 414.5 195 L 415.5 197 L 414.5 195 Z " /><path fill="rgb(0,0,0)" stroke="rgb(0,0,0)" stroke-width="1" opacity="0.803921568627451" d="M 425.5 202 L 428.5 206 L 425.5 202 Z " /><path fill="rgb(0,0,0)" stroke="rgb(0,0,0)" stroke-width="1" opacity="0.803921568627451" d="M 432.5 209 L 435.5 213 L 432.5 209 Z " /><path fill="rgb(0,0,0)" stroke="rgb(0,0,0)" stroke-width="1" opacity="0.803921568627451" d="M 437.5 215 L 438.5 217 L 437.5 215 Z " /><path fill="rgb(0,0,0)" stroke="rgb(0,0,0)" stroke-width="1" opacity="0.803921568627451" d="M 447.5 240 L 448 244.5 L 447 244.5 L 447.5 240 Z " /><path fill="rgb(0,0,0)" stroke="rgb(0,0,0)" stroke-width="1" opacity="0.803921568627451" d="M 447.5 252 L 448 256.5 L 447 256.5 L 447.5 252 Z " /><path fill="rgb(0,0,0)" stroke="rgb(0,0,0)" stroke-width="1" opacity="0.803921568627451" d="M 441.5 275 L 440.5 277 L 441.5 275 Z " /><path fill="rgb(0,0,0)" stroke="rgb(0,0,0)" stroke-width="1" opacity="0.803921568627451" d="M 438.5 280 L 437.5 282 L 438.5 280 Z " /><path fill="rgb(0,0,0)" stroke="rgb(0,0,0)" stroke-width="1" opacity="0.803921568627451" d="M 436.5 283 L 433.5 287 L 436.5 283 Z " /><path fill="rgb(0,0,0)" stroke="rgb(0,0,0)" stroke-width="1" opacity="0.803921568627451" d="M 427.5 292 L 424.5 296 L 427.5 292 Z " /><path fill="rgb(0,0,0)" stroke="rgb(0,0,0)" stroke-width="1" opacity="0.803921568627451" d="M 422.5 296 L 421.5 298 L 422.5 296 Z " /><path fill="rgb(0,0,0)" stroke="rgb(0,0,0)" stroke-width="1" opacity="0.803921568627451" d="M 419.5 298 L 418.5 300 L 419.5 298 Z " /><path fill="rgb(0,0,0)" stroke="rgb(0,0,0)" stroke-width="1" opacity="0.803921568627451" d="M 411.5 303 L 410.5 305 L 411.5 303 Z " /><path fill="rgb(0,0,0)" stroke="rgb(0,0,0)" stroke-width="1" opacity="0.803921568627451" d="M 403.5 308 L 402.5 310 L 403.5 308 Z " /><path fill="rgb(0,0,0)" stroke="rgb(0,0,0)" stroke-width="1" opacity="0.803921568627451" d="M 400.5 310 L 399.5 312 L 400.5 310 Z " /><path fill="rgb(0,0,0)" stroke="rgb(0,0,0)" stroke-width="1" opacity="0.803921568627451" d="M 392.5 315 L 391.5 317 L 392.5 315 Z " /><path fill="rgb(0,0,0)" stroke="rgb(0,0,0)" stroke-width="1" opacity="0.803921568627451" d="M 384.5 320 L 383.5 322 L 384.5 320 Z " /><path fill="rgb(0,0,0)" stroke="rgb(0,0,0)" stroke-width="1" opacity="0.803921568627451" d="M 381.5 322 L 380.5 324 L 381.5 322 Z " /><path fill="rgb(0,0,0)" stroke="rgb(0,0,0)" stroke-width="1" opacity="0.803921568627451" d="M 373.5 327 L 372.5 329 L 373.5 327 Z " /><path fill="rgb(0,0,0)" stroke="rgb(0,0,0)" stroke-width="1" opacity="0.803921568627451" d="M 370.5 329 L 369.5 331 L 370.5 329 Z " /><path fill="rgb(0,0,0)" stroke="rgb(0,0,0)" stroke-width="1" opacity="0.803921568627451" d="M 365.5 332 L 364.5 334 L 365.5 332 Z " /><path fill="rgb(0,0,0)" stroke="rgb(0,0,0)" stroke-width="1" opacity="0.803921568627451" d="M 362.5 334 L 361.5 336 L 362.5 334 Z " /><path fill="rgb(0,0,0)" stroke="rgb(0,0,0)" stroke-width="1" opacity="0.803921568627451" d="M 354.5 339 L 353.5 341 L 354.5 339 Z " /><path fill="rgb(0,0,0)" stroke="rgb(0,0,0)" stroke-width="1" opacity="0.803921568627451" d="M 351.5 341 L 350.5 343 L 351.5 341 Z " /><path fill="rgb(0,0,0)" stroke="rgb(0,0,0)" stroke-width="1" opacity="0.803921568627451" d="M 346.5 344 L 345.5 346 L 346.5 344 Z " /><path fill="rgb(0,0,0)" stroke="rgb(0,0,0)" stroke-width="1" opacity="0.803921568627451" d="M 343.5 346 L 342.5 348 L 343.5 346 Z " /><path fill="rgb(0,0,0)" stroke="rgb(0,0,0)" stroke-width="1" opacity="0.803921568627451" d="M 335.5 351 L 334.5 353 L 335.5 351 Z " /><path fill="rgb(0,0,0)" stroke="rgb(0,0,0)" stroke-width="1" opacity="0.803921568627451" d="M 332.5 353 L 331.5 355 L 332.5 353 Z " /><path fill="rgb(0,0,0)" stroke="rgb(0,0,0)" stroke-width="1" opacity="0.803921568627451" d="M 327.5 356 L 326.5 358 L 327.5 356 Z " /><path fill="rgb(0,0,0)" stroke="rgb(0,0,0)" stroke-width="1" opacity="0.803921568627451" d="M 324.5 358 L 323.5 360 L 324.5 358 Z " /><path fill="rgb(0,0,0)" stroke="rgb(0,0,0)" stroke-width="1" opacity="0.803921568627451" d="M 316.5 363 L 315.5 365 L 316.5 363 Z " /><path fill="rgb(0,0,0)" stroke="rgb(0,0,0)" stroke-width="1" opacity="0.803921568627451" d="M 313.5 365 L 312.5 367 L 313.5 365 Z " /><path fill="rgb(0,0,0)" stroke="rgb(0,0,0)" stroke-width="1" opacity="0.803921568627451" d="M 308.5 368 L 307.5 370 L 308.5 368 Z " /><path fill="rgb(0,0,0)" stroke="rgb(0,0,0)" stroke-width="1" opacity="0.803921568627451" d="M 305.5 370 L 304.5 372 L 305.5 370 Z " /><path fill="rgb(0,0,0)" stroke="rgb(0,0,0)" stroke-width="1" opacity="0.803921568627451" d="M 297.5 375 L 296.5 377 L 297.5 375 Z " /><path fill="rgb(0,0,0)" stroke="rgb(0,0,0)" stroke-width="1" opacity="0.803921568627451" d="M 294.5 377 L 293.5 379 L 294.5 377 Z " /><path fill="rgb(0,0,0)" stroke="rgb(0,0,0)" stroke-width="1" opacity="0.803921568627451" d="M 289.5 380 L 288.5 382 L 289.5 380 Z " /><path fill="rgb(0,0,0)" stroke="rgb(0,0,0)" stroke-width="1" opacity="0.803921568627451" d="M 286.5 382 L 285.5 384 L 286.5 382 Z " /><path fill="rgb(0,0,0)" stroke="rgb(0,0,0)" stroke-width="1" opacity="0.803921568627451" d="M 278.5 387 L 277.5 389 L 278.5 387 Z " /><path fill="rgb(0,0,0)" stroke="rgb(0,0,0)" stroke-width="1" opacity="0.803921568627451" d="M 275.5 389 L 274.5 391 L 275.5 389 Z " /><path fill="rgb(0,0,0)" stroke="rgb(0,0,0)" stroke-width="1" opacity="0.803921568627451" d="M 270.5 392 L 269.5 394 L 270.5 392 Z " /><path fill="rgb(0,0,0)" stroke="rgb(0,0,0)" stroke-width="1" opacity="0.803921568627451" d="M 267.5 394 L 266.5 396 L 267.5 394 Z " /><path fill="rgb(0,0,0)" stroke="rgb(0,0,0)" stroke-width="1" opacity="0.803921568627451" d="M 259.5 399 L 258.5 401 L 259.5 399 Z " /><path fill="rgb(0,0,0)" stroke="rgb(0,0,0)" stroke-width="1" opacity="0.803921568627451" d="M 256.5 401 L 255.5 403 L 256.5 401 Z " /><path fill="rgb(0,0,0)" stroke="rgb(0,0,0)" stroke-width="1" opacity="0.803921568627451" d="M 251.5 404 L 250.5 406 L 251.5 404 Z " /><path fill="rgb(0,0,0)" stroke="rgb(0,0,0)" stroke-width="1" opacity="0.803921568627451" d="M 248.5 406 L 247.5 408 L 248.5 406 Z " /><path fill="rgb(0,0,0)" stroke="rgb(0,0,0)" stroke-width="1" opacity="0.803921568627451" d="M 240.5 411 L 239.5 413 L 240.5 411 Z " /><path fill="rgb(0,0,0)" stroke="rgb(0,0,0)" stroke-width="1" opacity="0.803921568627451" d="M 237.5 413 L 236.5 415 L 237.5 413 Z " /><path fill="rgb(0,0,0)" stroke="rgb(0,0,0)" stroke-width="1" opacity="0.803921568627451" d="M 232.5 416 L 231.5 418 L 232.5 416 Z " /><path fill="rgb(0,0,0)" stroke="rgb(0,0,0)" stroke-width="1" opacity="0.803921568627451" d="M 229.5 418 L 228.5 420 L 229.5 418 Z " /><path fill="rgb(0,0,0)" stroke="rgb(0,0,0)" stroke-width="1" opacity="0.803921568627451" d="M 221.5 423 L 220.5 425 L 221.5 423 Z " /><path fill="rgb(0,0,0)" stroke="rgb(0,0,0)" stroke-width="1" opacity="0.803921568627451" d="M 218.5 425 L 217.5 427 L 218.5 425 Z " /><path fill="rgb(0,0,0)" stroke="rgb(0,0,0)" stroke-width="1" opacity="0.803921568627451" d="M 213.5 428 L 212.5 430 L 213.5 428 Z " /><path fill="rgb(0,0,0)" stroke="rgb(0,0,0)" stroke-width="1" opacity="0.803921568627451" d="M 64.5 430 L 65 434.5 L 64 434.5 L 64.5 430 Z " /><path fill="rgb(0,0,0)" stroke="rgb(0,0,0)" stroke-width="1" opacity="0.803921568627451" d="M 210.5 430 L 209.5 432 L 210.5 430 Z " /><path fill="rgb(0,0,0)" stroke="rgb(0,0,0)" stroke-width="1" opacity="0.803921568627451" d="M 202.5 435 L 201.5 437 L 202.5 435 Z " /><path fill="rgb(0,0,0)" stroke="rgb(0,0,0)" stroke-width="1" opacity="0.803921568627451" d="M 65.5 437 L 66 439.5 L 65 439.5 L 65.5 437 Z " /><path fill="rgb(0,0,0)" stroke="rgb(0,0,0)" stroke-width="1" opacity="0.803921568627451" d="M 199.5 437 L 198.5 439 L 199.5 437 Z " /><path fill="rgb(0,0,0)" stroke="rgb(0,0,0)" stroke-width="1" opacity="0.803921568627451" d="M 194.5 440 L 193.5 442 L 194.5 440 Z " /><path fill="rgb(0,0,0)" stroke="rgb(0,0,0)" stroke-width="1" opacity="0.803921568627451" d="M 191.5 442 L 190.5 444 L 191.5 442 Z " /><path fill="rgb(0,0,0)" stroke="rgb(0,0,0)" stroke-width="1" opacity="0.803921568627451" d="M 183.5 447 L 182.5 449 L 183.5 447 Z " /><path fill="rgb(0,0,0)" stroke="rgb(0,0,0)" stroke-width="1" opacity="0.803921568627451" d="M 180.5 449 L 179.5 451 L 180.5 449 Z " /><path fill="rgb(0,0,0)" stroke="rgb(0,0,0)" stroke-width="1" opacity="0.803921568627451" d="M 175.5 452 L 174.5 454 L 175.5 452 Z " /><path fill="rgb(0,0,0)" stroke="rgb(0,0,0)" stroke-width="1" opacity="0.803921568627451" d="M 172.5 454 L 171.5 456 L 172.5 454 Z " /><path fill="rgb(0,0,0)" stroke="rgb(0,0,0)" stroke-width="1" opacity="0.803921568627451" d="M 72.5 455 L 73.5 457 L 72.5 455 Z " /><path fill="rgb(0,0,0)" stroke="rgb(0,0,0)" stroke-width="1" opacity="0.803921568627451" d="M 74.5 458 L 76.5 461 L 74.5 458 Z " /><path fill="rgb(0,0,0)" stroke="rgb(0,0,0)" stroke-width="1" opacity="0.803921568627451" d="M 164.5 459 L 163.5 461 L 164.5 459 Z " /><path fill="rgb(0,0,0)" stroke="rgb(0,0,0)" stroke-width="1" opacity="0.803921568627451" d="M 161.5 461 L 160.5 463 L 161.5 461 Z " /><path fill="rgb(0,0,0)" stroke="rgb(0,0,0)" stroke-width="1" opacity="0.803921568627451" d="M 156.5 464 L 155.5 466 L 156.5 464 Z " /><path fill="rgb(0,0,0)" stroke="rgb(0,0,0)" stroke-width="1" opacity="0.803921568627451" d="M 153.5 466 L 152.5 468 L 153.5 466 Z " /><path fill="rgb(0,0,0)" stroke="rgb(0,0,0)" stroke-width="1" opacity="0.803921568627451" d="M 83.5 467 L 85.5 470 L 83.5 467 Z " /><path fill="rgb(0,0,0)" stroke="rgb(0,0,0)" stroke-width="1" opacity="0.803921568627451" d="M 87.5 470 L 88.5 472 L 87.5 470 Z " /><path fill="rgb(0,0,0)" stroke="rgb(0,0,0)" stroke-width="1" opacity="0.803921568627451" d="M 145.5 471 L 144.5 473 L 145.5 471 Z " /><path fill="rgb(0,0,0)" stroke="rgb(0,0,0)" stroke-width="1" opacity="0.803921568627451" d="M 104.5 478 L 107 478.5 L 104.5 479 L 104.5 478 Z " /><path fill="rgb(0,0,0)" stroke="rgb(0,0,0)" stroke-width="1" opacity="0.803921568627451" d="M 110.5 479 L 115 479.5 L 110.5 480 L 110.5 479 Z " /><path fill="rgb(0,0,0)" stroke="rgb(0,0,0)" stroke-width="1" opacity="0.803921568627451" d="M 120.5 479 L 125 479.5 L 120.5 480 L 120.5 479 Z " /><path fill="rgb(0,0,0)" stroke="rgb(0,0,0)" stroke-width="1" opacity="1" d="M 116.5 32 Q 133 32.5 143.5 39 L 420.5 199 L 432 208.5 Q 447.2 222.8 448 251.5 L 447 252.5 L 446 263.5 L 442 274.5 L 428.5 292 L 148.5 470 Q 136.5 479.5 115.5 480 L 97.5 476 Q 85.2 470.8 77 461.5 L 67 444.5 L 64 429.5 L 64 84.5 L 65 83.5 L 66 71.5 L 71 59.5 L 85.5 43 L 97.5 36 L 107.5 33 L 115.5 33 L 116.5 32 Z " /></svg>